<?xml version="1.0" encoding="UTF-8" standalone="no"?>
<!DOCTYPE svg PUBLIC "-//W3C//DTD SVG 1.1//EN"
 "http://www.w3.org/Graphics/SVG/1.1/DTD/svg11.dtd">
<!-- Generated by graphviz version 9.0.0 (20230911.1827)
 -->
<!-- Title: Salesforce+ ERD Pages: 1 -->
<svg width="1856pt" height="414pt"
 viewBox="0.00 0.00 1856.00 413.99" xmlns="http://www.w3.org/2000/svg" xmlns:xlink="http://www.w3.org/1999/xlink">
<g id="graph0" class="graph" transform="scale(1 1) rotate(0) translate(4 409.99)">
<title>Salesforce+ ERD</title>
<polygon fill="#efeffd" stroke="none" points="-4,4 -4,-409.99 1852,-409.99 1852,4 -4,4"/>
<text text-anchor="middle" x="1800.62" y="-5.95" font-family="Courier,monospace" font-size="9.00">Salesforce ERD </text>
<!-- PermissionSetAssignment -->
<g id="node1" class="node">
<title>PermissionSetAssignment</title>
<g id="a_node1"><a xlink:href="#" xlink:title=" PermissionSetAssignment ">
<polygon fill="#ffeeff" stroke="none" points="1072,-251.99 1072,-405.99 1848,-405.99 1848,-251.99 1072,-251.99"/>
<polygon fill="lightblue" stroke="none" points="1073,-385.99 1073,-404.99 1847,-404.99 1847,-385.99 1073,-385.99"/>
<polygon fill="none" stroke="#99ccff" points="1073,-385.99 1073,-404.99 1847,-404.99 1847,-385.99 1073,-385.99"/>
<text text-anchor="start" x="1382.38" y="-392.54" font-family="Courier,monospace" font-weight="bold" font-size="11.00">PermissionSetAssignment</text>
<polygon fill="#99ccff" stroke="none" points="1073,-366.99 1073,-385.99 1754,-385.99 1754,-366.99 1073,-366.99"/>
<polygon fill="none" stroke="#99ccff" points="1073,-366.99 1073,-385.99 1754,-385.99 1754,-366.99 1073,-366.99"/>
<text text-anchor="start" x="1076" y="-373.54" font-family="Courier,monospace" font-size="11.00"> &#160;&#160;&#160;&#160;&#160;&#160;&#160;&#160;&#160;&#160;&#160;&#160;&#160;&#160;&#160;&#160;&#160;&#160;&#160;&#160;&#160;&#160;&#160;&#160;&#160;&#160;&#160;&#160;&#160;&#160;&#160;&#160;&#160;&#160;&#160;&#160;&#160;&#160;&#160;&#160;&#160;&#160;</text>
<text text-anchor="start" x="1366.25" y="-373.54" font-family="Courier,monospace" font-weight="bold" font-size="11.00">Id</text>
<text text-anchor="start" x="1379.75" y="-373.54" font-family="Courier,monospace" font-size="11.00"> &#160;&#160;&#160;&#160;&#160;&#160;&#160;&#160;&#160;&#160;&#160;&#160;&#160;&#160;&#160;&#160;&#160;&#160;&#160;&#160;&#160;&#160;&#160;&#160;&#160;&#160;&#160;&#160;&#160;&#160;&#160;&#160;&#160;&#160;&#160;&#160;&#160;&#160;&#160;</text>
<polygon fill="none" stroke="#99ccff" points="1754,-366.99 1754,-385.99 1847,-385.99 1847,-366.99 1754,-366.99"/>
<text text-anchor="start" x="1780.25" y="-372.54" font-family="Courier,monospace" font-size="11.00">id(18)</text>
<polygon fill="none" stroke="#99ccff" points="1073,-347.99 1073,-366.99 1754,-366.99 1754,-347.99 1073,-347.99"/>
<text text-anchor="start" x="1076" y="-353.54" font-family="Courier,monospace" font-size="11.00"> &#160;&#160;&#160;&#160;&#160;&#160;&#160;&#160;&#160;&#160;&#160;&#160;&#160;&#160;&#160;&#160;&#160;&#160;&#160;&#160;&#160;&#160;&#160;&#160;&#160;&#160;&#160;&#160;&#160;&#160;&#160;&#160;&#160;&#160;&#160;&#160;&#160;&#160;&#160;&#160;PermissionSetId &#160;&#160;&#160;&#160;&#160;&#160;&#160;&#160;&#160;&#160;&#160;&#160;&#160;&#160;&#160;&#160;&#160;&#160;&#160;&#160;&#160;&#160;&#160;&#160;&#160;&#160;&#160;&#160;&#160;&#160;&#160;&#160;&#160;&#160;&#160;&#160;&#160;&#160;</text>
<polygon fill="none" stroke="#99ccff" points="1754,-347.99 1754,-366.99 1847,-366.99 1847,-347.99 1754,-347.99"/>
<text text-anchor="start" x="1756.62" y="-353.54" font-family="Courier,monospace" font-size="11.00">reference(18)</text>
<polygon fill="none" stroke="#99ccff" points="1073,-328.99 1073,-347.99 1754,-347.99 1754,-328.99 1073,-328.99"/>
<text text-anchor="start" x="1076" y="-334.54" font-family="Courier,monospace" font-size="11.00"> &#160;&#160;&#160;&#160;&#160;&#160;&#160;&#160;&#160;&#160;&#160;&#160;&#160;&#160;&#160;&#160;&#160;&#160;&#160;&#160;&#160;&#160;&#160;&#160;&#160;&#160;&#160;&#160;&#160;&#160;&#160;&#160;&#160;&#160;&#160;&#160;&#160;&#160;&#160;&#160;PermissionSetGroupId &#160;&#160;&#160;&#160;&#160;&#160;&#160;&#160;&#160;&#160;&#160;&#160;&#160;&#160;&#160;&#160;&#160;&#160;&#160;&#160;&#160;&#160;&#160;&#160;&#160;&#160;&#160;&#160;&#160;&#160;&#160;&#160;&#160;&#160;&#160;&#160;&#160;&#160;</text>
<polygon fill="none" stroke="#99ccff" points="1754,-328.99 1754,-347.99 1847,-347.99 1847,-328.99 1754,-328.99"/>
<text text-anchor="start" x="1756.62" y="-334.54" font-family="Courier,monospace" font-size="11.00">reference(18)</text>
<polygon fill="none" stroke="#99ccff" points="1073,-309.99 1073,-328.99 1754,-328.99 1754,-309.99 1073,-309.99"/>
<text text-anchor="start" x="1076" y="-315.54" font-family="Courier,monospace" font-size="11.00"> &#160;&#160;&#160;&#160;&#160;&#160;&#160;&#160;&#160;&#160;&#160;&#160;&#160;&#160;&#160;&#160;&#160;&#160;&#160;&#160;&#160;&#160;&#160;&#160;&#160;&#160;&#160;&#160;&#160;&#160;&#160;&#160;&#160;&#160;&#160;&#160;&#160;&#160;&#160;&#160;AssigneeId &#160;&#160;&#160;&#160;&#160;&#160;&#160;&#160;&#160;&#160;&#160;&#160;&#160;&#160;&#160;&#160;&#160;&#160;&#160;&#160;&#160;&#160;&#160;&#160;&#160;&#160;&#160;&#160;&#160;&#160;&#160;&#160;&#160;&#160;&#160;&#160;&#160;&#160;</text>
<polygon fill="none" stroke="#99ccff" points="1754,-309.99 1754,-328.99 1847,-328.99 1847,-309.99 1754,-309.99"/>
<text text-anchor="start" x="1756.62" y="-315.54" font-family="Courier,monospace" font-size="11.00">reference(18)</text>
<polygon fill="none" stroke="#99ccff" points="1073,-290.99 1073,-309.99 1754,-309.99 1754,-290.99 1073,-290.99"/>
<text text-anchor="start" x="1076" y="-296.54" font-family="Courier,monospace" font-size="11.00"> &#160;&#160;&#160;&#160;&#160;&#160;&#160;&#160;&#160;&#160;&#160;&#160;&#160;&#160;&#160;&#160;&#160;&#160;&#160;&#160;&#160;&#160;&#160;&#160;&#160;&#160;&#160;&#160;&#160;&#160;&#160;&#160;&#160;&#160;&#160;&#160;&#160;&#160;&#160;&#160;ExpirationDate &#160;&#160;&#160;&#160;&#160;&#160;&#160;&#160;&#160;&#160;&#160;&#160;&#160;&#160;&#160;&#160;&#160;&#160;&#160;&#160;&#160;&#160;&#160;&#160;&#160;&#160;&#160;&#160;&#160;&#160;&#160;&#160;&#160;&#160;&#160;&#160;&#160;&#160;</text>
<polygon fill="none" stroke="#99ccff" points="1754,-290.99 1754,-309.99 1847,-309.99 1847,-290.99 1754,-290.99"/>
<text text-anchor="start" x="1773.5" y="-296.54" font-family="Courier,monospace" font-size="11.00">datetime</text>
<polygon fill="none" stroke="#99ccff" points="1073,-271.99 1073,-290.99 1754,-290.99 1754,-271.99 1073,-271.99"/>
<text text-anchor="start" x="1076" y="-277.54" font-family="Courier,monospace" font-size="11.00"> &#160;&#160;&#160;&#160;&#160;&#160;&#160;&#160;&#160;&#160;&#160;&#160;&#160;&#160;&#160;&#160;&#160;&#160;&#160;&#160;&#160;&#160;&#160;&#160;&#160;&#160;&#160;&#160;&#160;&#160;&#160;&#160;&#160;&#160;&#160;&#160;&#160;&#160;&#160;&#160;IsActive &#160;&#160;&#160;&#160;&#160;&#160;&#160;&#160;&#160;&#160;&#160;&#160;&#160;&#160;&#160;&#160;&#160;&#160;&#160;&#160;&#160;&#160;&#160;&#160;&#160;&#160;&#160;&#160;&#160;&#160;&#160;&#160;&#160;&#160;&#160;&#160;&#160;&#160;</text>
<polygon fill="none" stroke="#99ccff" points="1754,-271.99 1754,-290.99 1847,-290.99 1847,-271.99 1754,-271.99"/>
<text text-anchor="start" x="1776.88" y="-277.54" font-family="Courier,monospace" font-size="11.00">boolean</text>
<polygon fill="none" stroke="#99ccff" points="1073,-252.99 1073,-271.99 1754,-271.99 1754,-252.99 1073,-252.99"/>
<text text-anchor="start" x="1076" y="-258.54" font-family="Courier,monospace" font-size="11.00"> &#160;&#160;&#160;&#160;&#160;&#160;&#160;&#160;&#160;&#160;&#160;&#160;&#160;&#160;&#160;&#160;&#160;&#160;&#160;&#160;&#160;&#160;&#160;&#160;&#160;&#160;&#160;&#160;&#160;&#160;&#160;&#160;&#160;&#160;&#160;&#160;&#160;&#160;&#160;&#160;IsRevoked &#160;&#160;&#160;&#160;&#160;&#160;&#160;&#160;&#160;&#160;&#160;&#160;&#160;&#160;&#160;&#160;&#160;&#160;&#160;&#160;&#160;&#160;&#160;&#160;&#160;&#160;&#160;&#160;&#160;&#160;&#160;&#160;&#160;&#160;&#160;&#160;&#160;&#160;</text>
<polygon fill="none" stroke="#99ccff" points="1754,-252.99 1754,-271.99 1847,-271.99 1847,-252.99 1754,-252.99"/>
<text text-anchor="start" x="1776.88" y="-258.54" font-family="Courier,monospace" font-size="11.00">boolean</text>
<polygon fill="none" stroke="#99ccff" points="1072,-251.99 1072,-405.99 1848,-405.99 1848,-251.99 1072,-251.99"/>
</a>
</g>
</g>
<!-- PermissionSet -->
<g id="node2" class="node">
<title>PermissionSet</title>
<text text-anchor="middle" x="552.5" y="-357.29" font-family="Courier,monospace" font-size="11.00">PermissionSet</text>
</g>
<!-- PermissionSetAssignment&#45;&gt;PermissionSet -->
<g id="edge1" class="edge">
<title>PermissionSetAssignment:w&#45;&gt;PermissionSet:e</title>
<path fill="none" stroke="#ff99cc" d="M1056.34,-358C888.3,-358.09 694.32,-359.68 604.28,-360.5"/>
<polygon fill="#ff99cc" stroke="#ff99cc" points="1063.67,-358 1071.67,-361.59 1068,-357.99 1071.33,-357.99 1071.33,-357.99 1071.33,-357.99 1068,-357.99 1071.66,-354.39 1063.67,-358"/>
<ellipse fill="none" stroke="#ff99cc" cx="1058.75" cy="-358" rx="3.2" ry="3.2"/>
<text text-anchor="middle" x="1007.75" y="-360.69" font-family="Monaco" font-size="9.00">PermissionSet</text>
</g>
<!-- PermissionSetGroup -->
<g id="node3" class="node">
<title>PermissionSetGroup</title>
<g id="a_node3"><a xlink:href="#" xlink:title=" PermissionSetGroup ">
<polygon fill="#ffeeff" stroke="none" points="161.5,-81.49 161.5,-292.49 943.5,-292.49 943.5,-81.49 161.5,-81.49"/>
<polygon fill="lightblue" stroke="none" points="162.5,-272.49 162.5,-291.49 942.5,-291.49 942.5,-272.49 162.5,-272.49"/>
<polygon fill="none" stroke="#99ccff" points="162.5,-272.49 162.5,-291.49 942.5,-291.49 942.5,-272.49 162.5,-272.49"/>
<text text-anchor="start" x="491.75" y="-279.04" font-family="Courier,monospace" font-weight="bold" font-size="11.00">PermissionSetGroup</text>
<polygon fill="#99ccff" stroke="none" points="162.5,-253.49 162.5,-272.49 849.5,-272.49 849.5,-253.49 162.5,-253.49"/>
<polygon fill="none" stroke="#99ccff" points="162.5,-253.49 162.5,-272.49 849.5,-272.49 849.5,-253.49 162.5,-253.49"/>
<text text-anchor="start" x="165.5" y="-260.04" font-family="Courier,monospace" font-size="11.00"> &#160;&#160;&#160;&#160;&#160;&#160;&#160;&#160;&#160;&#160;&#160;&#160;&#160;&#160;&#160;&#160;&#160;&#160;&#160;&#160;&#160;&#160;&#160;&#160;&#160;&#160;&#160;&#160;&#160;&#160;&#160;&#160;&#160;&#160;&#160;&#160;&#160;&#160;&#160;&#160;&#160;&#160;</text>
<text text-anchor="start" x="455.75" y="-260.04" font-family="Courier,monospace" font-weight="bold" font-size="11.00">Id</text>
<text text-anchor="start" x="469.25" y="-260.04" font-family="Courier,monospace" font-size="11.00"> &#160;&#160;&#160;&#160;&#160;&#160;&#160;&#160;&#160;&#160;&#160;&#160;&#160;&#160;&#160;&#160;&#160;&#160;&#160;&#160;&#160;&#160;&#160;&#160;&#160;&#160;&#160;&#160;&#160;&#160;&#160;&#160;&#160;&#160;&#160;&#160;&#160;&#160;&#160;</text>
<polygon fill="none" stroke="#99ccff" points="849.5,-253.49 849.5,-272.49 942.5,-272.49 942.5,-253.49 849.5,-253.49"/>
<text text-anchor="start" x="875.75" y="-259.04" font-family="Courier,monospace" font-size="11.00">id(18)</text>
<polygon fill="none" stroke="#99ccff" points="162.5,-234.49 162.5,-253.49 849.5,-253.49 849.5,-234.49 162.5,-234.49"/>
<text text-anchor="start" x="165.5" y="-240.04" font-family="Courier,monospace" font-size="11.00"> &#160;&#160;&#160;&#160;&#160;&#160;&#160;&#160;&#160;&#160;&#160;&#160;&#160;&#160;&#160;&#160;&#160;&#160;&#160;&#160;&#160;&#160;&#160;&#160;&#160;&#160;&#160;&#160;&#160;&#160;&#160;&#160;&#160;&#160;&#160;&#160;&#160;&#160;&#160;&#160;IsDeleted &#160;&#160;&#160;&#160;&#160;&#160;&#160;&#160;&#160;&#160;&#160;&#160;&#160;&#160;&#160;&#160;&#160;&#160;&#160;&#160;&#160;&#160;&#160;&#160;&#160;&#160;&#160;&#160;&#160;&#160;&#160;&#160;&#160;&#160;&#160;&#160;&#160;&#160;</text>
<polygon fill="none" stroke="#99ccff" points="849.5,-234.49 849.5,-253.49 942.5,-253.49 942.5,-234.49 849.5,-234.49"/>
<text text-anchor="start" x="872.38" y="-240.04" font-family="Courier,monospace" font-size="11.00">boolean</text>
<polygon fill="none" stroke="#99ccff" points="162.5,-215.49 162.5,-234.49 849.5,-234.49 849.5,-215.49 162.5,-215.49"/>
<text text-anchor="start" x="165.5" y="-221.04" font-family="Courier,monospace" font-size="11.00"> &#160;&#160;&#160;&#160;&#160;&#160;&#160;&#160;&#160;&#160;&#160;&#160;&#160;&#160;&#160;&#160;&#160;&#160;&#160;&#160;&#160;&#160;&#160;&#160;&#160;&#160;&#160;&#160;&#160;&#160;&#160;&#160;&#160;&#160;&#160;&#160;&#160;&#160;&#160;&#160;DeveloperName &#160;&#160;&#160;&#160;&#160;&#160;&#160;&#160;&#160;&#160;&#160;&#160;&#160;&#160;&#160;&#160;&#160;&#160;&#160;&#160;&#160;&#160;&#160;&#160;&#160;&#160;&#160;&#160;&#160;&#160;&#160;&#160;&#160;&#160;&#160;&#160;&#160;&#160;</text>
<polygon fill="none" stroke="#99ccff" points="849.5,-215.49 849.5,-234.49 942.5,-234.49 942.5,-215.49 849.5,-215.49"/>
<text text-anchor="start" x="862.25" y="-221.04" font-family="Courier,monospace" font-size="11.00">string(80)</text>
<polygon fill="none" stroke="#99ccff" points="162.5,-196.49 162.5,-215.49 849.5,-215.49 849.5,-196.49 162.5,-196.49"/>
<text text-anchor="start" x="165.5" y="-202.04" font-family="Courier,monospace" font-size="11.00"> &#160;&#160;&#160;&#160;&#160;&#160;&#160;&#160;&#160;&#160;&#160;&#160;&#160;&#160;&#160;&#160;&#160;&#160;&#160;&#160;&#160;&#160;&#160;&#160;&#160;&#160;&#160;&#160;&#160;&#160;&#160;&#160;&#160;&#160;&#160;&#160;&#160;&#160;&#160;&#160;Language &#160;&#160;&#160;&#160;&#160;&#160;&#160;&#160;&#160;&#160;&#160;&#160;&#160;&#160;&#160;&#160;&#160;&#160;&#160;&#160;&#160;&#160;&#160;&#160;&#160;&#160;&#160;&#160;&#160;&#160;&#160;&#160;&#160;&#160;&#160;&#160;&#160;&#160;</text>
<polygon fill="none" stroke="#99ccff" points="849.5,-196.49 849.5,-215.49 942.5,-215.49 942.5,-196.49 849.5,-196.49"/>
<text text-anchor="start" x="855.5" y="-202.04" font-family="Courier,monospace" font-size="11.00">picklist(40)</text>
<polygon fill="none" stroke="#99ccff" points="162.5,-177.49 162.5,-196.49 849.5,-196.49 849.5,-177.49 162.5,-177.49"/>
<text text-anchor="start" x="165.5" y="-183.04" font-family="Courier,monospace" font-size="11.00"> &#160;&#160;&#160;&#160;&#160;&#160;&#160;&#160;&#160;&#160;&#160;&#160;&#160;&#160;&#160;&#160;&#160;&#160;&#160;&#160;&#160;&#160;&#160;&#160;&#160;&#160;&#160;&#160;&#160;&#160;&#160;&#160;&#160;&#160;&#160;&#160;&#160;&#160;&#160;&#160;MasterLabel &#160;&#160;&#160;&#160;&#160;&#160;&#160;&#160;&#160;&#160;&#160;&#160;&#160;&#160;&#160;&#160;&#160;&#160;&#160;&#160;&#160;&#160;&#160;&#160;&#160;&#160;&#160;&#160;&#160;&#160;&#160;&#160;&#160;&#160;&#160;&#160;&#160;&#160;</text>
<polygon fill="none" stroke="#99ccff" points="849.5,-177.49 849.5,-196.49 942.5,-196.49 942.5,-177.49 849.5,-177.49"/>
<text text-anchor="start" x="862.25" y="-183.04" font-family="Courier,monospace" font-size="11.00">string(80)</text>
<polygon fill="none" stroke="#99ccff" points="162.5,-158.49 162.5,-177.49 849.5,-177.49 849.5,-158.49 162.5,-158.49"/>
<text text-anchor="start" x="165.5" y="-164.04" font-family="Courier,monospace" font-size="11.00"> &#160;&#160;&#160;&#160;&#160;&#160;&#160;&#160;&#160;&#160;&#160;&#160;&#160;&#160;&#160;&#160;&#160;&#160;&#160;&#160;&#160;&#160;&#160;&#160;&#160;&#160;&#160;&#160;&#160;&#160;&#160;&#160;&#160;&#160;&#160;&#160;&#160;&#160;&#160;&#160;NamespacePrefix &#160;&#160;&#160;&#160;&#160;&#160;&#160;&#160;&#160;&#160;&#160;&#160;&#160;&#160;&#160;&#160;&#160;&#160;&#160;&#160;&#160;&#160;&#160;&#160;&#160;&#160;&#160;&#160;&#160;&#160;&#160;&#160;&#160;&#160;&#160;&#160;&#160;&#160;</text>
<polygon fill="none" stroke="#99ccff" points="849.5,-158.49 849.5,-177.49 942.5,-177.49 942.5,-158.49 849.5,-158.49"/>
<text text-anchor="start" x="862.25" y="-164.04" font-family="Courier,monospace" font-size="11.00">string(15)</text>
<polygon fill="none" stroke="#99ccff" points="162.5,-139.49 162.5,-158.49 849.5,-158.49 849.5,-139.49 162.5,-139.49"/>
<text text-anchor="start" x="165.5" y="-145.04" font-family="Courier,monospace" font-size="11.00"> &#160;&#160;&#160;&#160;&#160;&#160;&#160;&#160;&#160;&#160;&#160;&#160;&#160;&#160;&#160;&#160;&#160;&#160;&#160;&#160;&#160;&#160;&#160;&#160;&#160;&#160;&#160;&#160;&#160;&#160;&#160;&#160;&#160;&#160;&#160;&#160;&#160;&#160;&#160;&#160;LastModifiedById &#160;&#160;&#160;&#160;&#160;&#160;&#160;&#160;&#160;&#160;&#160;&#160;&#160;&#160;&#160;&#160;&#160;&#160;&#160;&#160;&#160;&#160;&#160;&#160;&#160;&#160;&#160;&#160;&#160;&#160;&#160;&#160;&#160;&#160;&#160;&#160;&#160;&#160;</text>
<polygon fill="none" stroke="#99ccff" points="849.5,-139.49 849.5,-158.49 942.5,-158.49 942.5,-139.49 849.5,-139.49"/>
<text text-anchor="start" x="852.12" y="-145.04" font-family="Courier,monospace" font-size="11.00">reference(18)</text>
<polygon fill="none" stroke="#99ccff" points="162.5,-120.49 162.5,-139.49 849.5,-139.49 849.5,-120.49 162.5,-120.49"/>
<text text-anchor="start" x="165.5" y="-126.04" font-family="Courier,monospace" font-size="11.00"> &#160;&#160;&#160;&#160;&#160;&#160;&#160;&#160;&#160;&#160;&#160;&#160;&#160;&#160;&#160;&#160;&#160;&#160;&#160;&#160;&#160;&#160;&#160;&#160;&#160;&#160;&#160;&#160;&#160;&#160;&#160;&#160;&#160;&#160;&#160;&#160;&#160;&#160;&#160;&#160;Description &#160;&#160;&#160;&#160;&#160;&#160;&#160;&#160;&#160;&#160;&#160;&#160;&#160;&#160;&#160;&#160;&#160;&#160;&#160;&#160;&#160;&#160;&#160;&#160;&#160;&#160;&#160;&#160;&#160;&#160;&#160;&#160;&#160;&#160;&#160;&#160;&#160;&#160;</text>
<polygon fill="none" stroke="#99ccff" points="849.5,-120.49 849.5,-139.49 942.5,-139.49 942.5,-120.49 849.5,-120.49"/>
<text text-anchor="start" x="852.12" y="-126.04" font-family="Courier,monospace" font-size="11.00">textarea(255)</text>
<polygon fill="none" stroke="#99ccff" points="162.5,-101.49 162.5,-120.49 849.5,-120.49 849.5,-101.49 162.5,-101.49"/>
<text text-anchor="start" x="165.5" y="-107.04" font-family="Courier,monospace" font-size="11.00"> &#160;&#160;&#160;&#160;&#160;&#160;&#160;&#160;&#160;&#160;&#160;&#160;&#160;&#160;&#160;&#160;&#160;&#160;&#160;&#160;&#160;&#160;&#160;&#160;&#160;&#160;&#160;&#160;&#160;&#160;&#160;&#160;&#160;&#160;&#160;&#160;&#160;&#160;&#160;&#160;Status &#160;&#160;&#160;&#160;&#160;&#160;&#160;&#160;&#160;&#160;&#160;&#160;&#160;&#160;&#160;&#160;&#160;&#160;&#160;&#160;&#160;&#160;&#160;&#160;&#160;&#160;&#160;&#160;&#160;&#160;&#160;&#160;&#160;&#160;&#160;&#160;&#160;&#160;</text>
<polygon fill="none" stroke="#99ccff" points="849.5,-101.49 849.5,-120.49 942.5,-120.49 942.5,-101.49 849.5,-101.49"/>
<text text-anchor="start" x="852.12" y="-107.04" font-family="Courier,monospace" font-size="11.00">picklist(255)</text>
<polygon fill="none" stroke="#99ccff" points="162.5,-82.49 162.5,-101.49 849.5,-101.49 849.5,-82.49 162.5,-82.49"/>
<text text-anchor="start" x="165.12" y="-88.04" font-family="Courier,monospace" font-size="11.00"> &#160;&#160;&#160;&#160;&#160;&#160;&#160;&#160;&#160;&#160;&#160;&#160;&#160;&#160;&#160;&#160;&#160;&#160;&#160;&#160;&#160;&#160;&#160;&#160;&#160;&#160;&#160;&#160;&#160;&#160;&#160;&#160;&#160;&#160;&#160;&#160;&#160;&#160;&#160;&#160;HasActivationRequired &#160;&#160;&#160;&#160;&#160;&#160;&#160;&#160;&#160;&#160;&#160;&#160;&#160;&#160;&#160;&#160;&#160;&#160;&#160;&#160;&#160;&#160;&#160;&#160;&#160;&#160;&#160;&#160;&#160;&#160;&#160;&#160;&#160;&#160;&#160;&#160;&#160;&#160;</text>
<polygon fill="none" stroke="#99ccff" points="849.5,-82.49 849.5,-101.49 942.5,-101.49 942.5,-82.49 849.5,-82.49"/>
<text text-anchor="start" x="872.38" y="-88.04" font-family="Courier,monospace" font-size="11.00">boolean</text>
<polygon fill="none" stroke="#99ccff" points="161.5,-81.49 161.5,-292.49 943.5,-292.49 943.5,-81.49 161.5,-81.49"/>
</a>
</g>
</g>
<!-- PermissionSetAssignment&#45;&gt;PermissionSetGroup -->
<g id="edge2" class="edge">
<title>PermissionSetAssignment:w&#45;&gt;PermissionSetGroup:e</title>
<path fill="none" stroke="#ff99cc" d="M1061.87,-326.98C1061.61,-317.57 1063.96,-304.9 1055,-297.74 982.97,-240.2 942.69,-262.99 850.5,-262.99"/>
<polygon fill="#ff99cc" stroke="#ff99cc" points="1066.63,-332.62 1069.03,-341.06 1069.42,-335.94 1071.57,-338.48 1071.57,-338.48 1071.57,-338.48 1069.42,-335.94 1074.54,-336.42 1066.63,-332.62"/>
<ellipse fill="none" stroke="#ff99cc" cx="1063.46" cy="-328.86" rx="3.2" ry="3.2"/>
<text text-anchor="middle" x="1007.75" y="-299.69" font-family="Monaco" font-size="9.00">PermissionSetGroup</text>
</g>
<!-- User -->
<g id="node4" class="node">
<title>User</title>
<text text-anchor="middle" x="27" y="-145.29" font-family="Courier,monospace" font-size="11.00">User</text>
</g>
<!-- PermissionSetAssignment&#45;&gt;User -->
<g id="edge3" class="edge">
<title>PermissionSetAssignment:w&#45;&gt;User:e</title>
<path fill="none" stroke="#ff99cc" d="M1056.52,-319.1C913.01,-320.72 249.6,-339.69 161.5,-298.99 100.58,-270.85 55.79,-200.22 37.32,-166.91"/>
<polygon fill="#ff99cc" stroke="#ff99cc" points="1063.67,-319.05 1071.69,-322.6 1068,-319.02 1071.33,-319 1071.33,-319 1071.33,-319 1068,-319.02 1071.64,-315.4 1063.67,-319.05"/>
<ellipse fill="none" stroke="#ff99cc" cx="1058.75" cy="-319.09" rx="3.2" ry="3.2"/>
<text text-anchor="middle" x="552.5" y="-326.69" font-family="Monaco" font-size="9.00">Assignee</text>
</g>
<!-- PermissionSetGroup&#45;&gt;User -->
<g id="edge4" class="edge">
<title>PermissionSetGroup:w&#45;&gt;User:e</title>
<path fill="none" stroke="#ff99cc" d="M145.82,-148.99C112.37,-148.99 76.79,-148.99 53.59,-148.99"/>
<polygon fill="#ff99cc" stroke="#ff99cc" points="153.17,-148.99 161.17,-152.59 157.5,-148.99 160.83,-148.99 160.83,-148.99 160.83,-148.99 157.5,-148.99 161.17,-145.39 153.17,-148.99"/>
<ellipse fill="none" stroke="#ff99cc" cx="148.25" cy="-148.99" rx="3.2" ry="3.2"/>
<text text-anchor="middle" x="107.75" y="-151.69" font-family="Monaco" font-size="9.00">LastModifiedBy</text>
</g>
<!-- PermissionSetGroupComponent -->
<g id="node5" class="node">
<title>PermissionSetGroupComponent</title>
<g id="a_node5"><a xlink:href="#" xlink:title=" PermissionSetGroupComponent ">
<polygon fill="#ffeeff" stroke="none" points="1072,-23.99 1072,-139.99 1848,-139.99 1848,-23.99 1072,-23.99"/>
<polygon fill="lightblue" stroke="none" points="1073,-119.99 1073,-138.99 1847,-138.99 1847,-119.99 1073,-119.99"/>
<polygon fill="none" stroke="#99ccff" points="1073,-119.99 1073,-138.99 1847,-138.99 1847,-119.99 1073,-119.99"/>
<text text-anchor="start" x="1368.88" y="-126.54" font-family="Courier,monospace" font-weight="bold" font-size="11.00">PermissionSetGroupComponent</text>
<polygon fill="#99ccff" stroke="none" points="1073,-100.99 1073,-119.99 1754,-119.99 1754,-100.99 1073,-100.99"/>
<polygon fill="none" stroke="#99ccff" points="1073,-100.99 1073,-119.99 1754,-119.99 1754,-100.99 1073,-100.99"/>
<text text-anchor="start" x="1076" y="-107.54" font-family="Courier,monospace" font-size="11.00"> &#160;&#160;&#160;&#160;&#160;&#160;&#160;&#160;&#160;&#160;&#160;&#160;&#160;&#160;&#160;&#160;&#160;&#160;&#160;&#160;&#160;&#160;&#160;&#160;&#160;&#160;&#160;&#160;&#160;&#160;&#160;&#160;&#160;&#160;&#160;&#160;&#160;&#160;&#160;&#160;&#160;&#160;</text>
<text text-anchor="start" x="1366.25" y="-107.54" font-family="Courier,monospace" font-weight="bold" font-size="11.00">Id</text>
<text text-anchor="start" x="1379.75" y="-107.54" font-family="Courier,monospace" font-size="11.00"> &#160;&#160;&#160;&#160;&#160;&#160;&#160;&#160;&#160;&#160;&#160;&#160;&#160;&#160;&#160;&#160;&#160;&#160;&#160;&#160;&#160;&#160;&#160;&#160;&#160;&#160;&#160;&#160;&#160;&#160;&#160;&#160;&#160;&#160;&#160;&#160;&#160;&#160;&#160;</text>
<polygon fill="none" stroke="#99ccff" points="1754,-100.99 1754,-119.99 1847,-119.99 1847,-100.99 1754,-100.99"/>
<text text-anchor="start" x="1780.25" y="-106.54" font-family="Courier,monospace" font-size="11.00">id(18)</text>
<polygon fill="none" stroke="#99ccff" points="1073,-81.99 1073,-100.99 1754,-100.99 1754,-81.99 1073,-81.99"/>
<text text-anchor="start" x="1076" y="-87.54" font-family="Courier,monospace" font-size="11.00"> &#160;&#160;&#160;&#160;&#160;&#160;&#160;&#160;&#160;&#160;&#160;&#160;&#160;&#160;&#160;&#160;&#160;&#160;&#160;&#160;&#160;&#160;&#160;&#160;&#160;&#160;&#160;&#160;&#160;&#160;&#160;&#160;&#160;&#160;&#160;&#160;&#160;&#160;&#160;&#160;IsDeleted &#160;&#160;&#160;&#160;&#160;&#160;&#160;&#160;&#160;&#160;&#160;&#160;&#160;&#160;&#160;&#160;&#160;&#160;&#160;&#160;&#160;&#160;&#160;&#160;&#160;&#160;&#160;&#160;&#160;&#160;&#160;&#160;&#160;&#160;&#160;&#160;&#160;&#160;</text>
<polygon fill="none" stroke="#99ccff" points="1754,-81.99 1754,-100.99 1847,-100.99 1847,-81.99 1754,-81.99"/>
<text text-anchor="start" x="1776.88" y="-87.54" font-family="Courier,monospace" font-size="11.00">boolean</text>
<polygon fill="none" stroke="#99ccff" points="1073,-62.99 1073,-81.99 1754,-81.99 1754,-62.99 1073,-62.99"/>
<text text-anchor="start" x="1076" y="-68.54" font-family="Courier,monospace" font-size="11.00"> &#160;&#160;&#160;&#160;&#160;&#160;&#160;&#160;&#160;&#160;&#160;&#160;&#160;&#160;&#160;&#160;&#160;&#160;&#160;&#160;&#160;&#160;&#160;&#160;&#160;&#160;&#160;&#160;&#160;&#160;&#160;&#160;&#160;&#160;&#160;&#160;&#160;&#160;&#160;&#160;LastModifiedById &#160;&#160;&#160;&#160;&#160;&#160;&#160;&#160;&#160;&#160;&#160;&#160;&#160;&#160;&#160;&#160;&#160;&#160;&#160;&#160;&#160;&#160;&#160;&#160;&#160;&#160;&#160;&#160;&#160;&#160;&#160;&#160;&#160;&#160;&#160;&#160;&#160;&#160;</text>
<polygon fill="none" stroke="#99ccff" points="1754,-62.99 1754,-81.99 1847,-81.99 1847,-62.99 1754,-62.99"/>
<text text-anchor="start" x="1756.62" y="-68.54" font-family="Courier,monospace" font-size="11.00">reference(18)</text>
<polygon fill="none" stroke="#99ccff" points="1073,-43.99 1073,-62.99 1754,-62.99 1754,-43.99 1073,-43.99"/>
<text text-anchor="start" x="1076" y="-49.54" font-family="Courier,monospace" font-size="11.00"> &#160;&#160;&#160;&#160;&#160;&#160;&#160;&#160;&#160;&#160;&#160;&#160;&#160;&#160;&#160;&#160;&#160;&#160;&#160;&#160;&#160;&#160;&#160;&#160;&#160;&#160;&#160;&#160;&#160;&#160;&#160;&#160;&#160;&#160;&#160;&#160;&#160;&#160;&#160;&#160;PermissionSetGroupId &#160;&#160;&#160;&#160;&#160;&#160;&#160;&#160;&#160;&#160;&#160;&#160;&#160;&#160;&#160;&#160;&#160;&#160;&#160;&#160;&#160;&#160;&#160;&#160;&#160;&#160;&#160;&#160;&#160;&#160;&#160;&#160;&#160;&#160;&#160;&#160;&#160;&#160;</text>
<polygon fill="none" stroke="#99ccff" points="1754,-43.99 1754,-62.99 1847,-62.99 1847,-43.99 1754,-43.99"/>
<text text-anchor="start" x="1756.62" y="-49.54" font-family="Courier,monospace" font-size="11.00">reference(18)</text>
<polygon fill="none" stroke="#99ccff" points="1073,-24.99 1073,-43.99 1754,-43.99 1754,-24.99 1073,-24.99"/>
<text text-anchor="start" x="1076" y="-30.54" font-family="Courier,monospace" font-size="11.00"> &#160;&#160;&#160;&#160;&#160;&#160;&#160;&#160;&#160;&#160;&#160;&#160;&#160;&#160;&#160;&#160;&#160;&#160;&#160;&#160;&#160;&#160;&#160;&#160;&#160;&#160;&#160;&#160;&#160;&#160;&#160;&#160;&#160;&#160;&#160;&#160;&#160;&#160;&#160;&#160;PermissionSetId &#160;&#160;&#160;&#160;&#160;&#160;&#160;&#160;&#160;&#160;&#160;&#160;&#160;&#160;&#160;&#160;&#160;&#160;&#160;&#160;&#160;&#160;&#160;&#160;&#160;&#160;&#160;&#160;&#160;&#160;&#160;&#160;&#160;&#160;&#160;&#160;&#160;&#160;</text>
<polygon fill="none" stroke="#99ccff" points="1754,-24.99 1754,-43.99 1847,-43.99 1847,-24.99 1754,-24.99"/>
<text text-anchor="start" x="1756.62" y="-30.54" font-family="Courier,monospace" font-size="11.00">reference(18)</text>
<polygon fill="none" stroke="#99ccff" points="1072,-23.99 1072,-139.99 1848,-139.99 1848,-23.99 1072,-23.99"/>
</a>
</g>
</g>
<!-- PermissionSetGroupComponent&#45;&gt;PermissionSet -->
<g id="edge7" class="edge">
<title>PermissionSetGroupComponent:w&#45;&gt;PermissionSet:e</title>
<path fill="none" stroke="#ff99cc" d="M1056.19,-33.53C1015.29,-31.26 990.05,-22.75 960.5,-56.74 920.15,-103.17 986.77,-289.28 943.5,-332.99 854.32,-423.09 687.71,-396.64 604.1,-375.73"/>
<polygon fill="#ff99cc" stroke="#ff99cc" points="1063.67,-33.75 1071.56,-37.58 1068,-33.88 1071.33,-33.97 1071.33,-33.97 1071.33,-33.97 1068,-33.88 1071.77,-30.39 1063.67,-33.75"/>
<ellipse fill="none" stroke="#ff99cc" cx="1058.75" cy="-33.61" rx="3.2" ry="3.2"/>
<text text-anchor="middle" x="1007.75" y="-59.69" font-family="Monaco" font-size="9.00">PermissionSet</text>
</g>
<!-- PermissionSetGroupComponent&#45;&gt;PermissionSetGroup -->
<g id="edge6" class="edge">
<title>PermissionSetGroupComponent:w&#45;&gt;PermissionSetGroup:e</title>
<path fill="none" stroke="#ff99cc" d="M1060.24,-63.12C1014.86,-105.07 854.18,-262.99 850.5,-262.99"/>
<polygon fill="#ff99cc" stroke="#ff99cc" points="1065.69,-58.43 1074.1,-55.94 1068.97,-55.6 1071.49,-53.43 1071.49,-53.43 1071.49,-53.43 1068.97,-55.6 1069.4,-50.48 1065.69,-58.43"/>
<ellipse fill="none" stroke="#ff99cc" cx="1061.96" cy="-61.64" rx="3.2" ry="3.2"/>
<text text-anchor="middle" x="1007.75" y="-160.69" font-family="Monaco" font-size="9.00">PermissionSetGroup</text>
</g>
<!-- PermissionSetGroupComponent&#45;&gt;User -->
<g id="edge5" class="edge">
<title>PermissionSetGroupComponent:w&#45;&gt;User:e</title>
<path fill="none" stroke="#ff99cc" d="M1056.7,-68.27C1056.16,-68.17 1055.6,-68.07 1055,-67.99 1005.86,-61.34 993.08,-64.69 943.5,-63.74 596.01,-57.12 495.12,33.69 161.5,-63.74 116.63,-76.85 72.48,-110.14 47.88,-131.03"/>
<polygon fill="#ff99cc" stroke="#ff99cc" points="1063.9,-70.02 1070.82,-75.41 1068.11,-71.05 1071.35,-71.84 1071.35,-71.84 1071.35,-71.84 1068.11,-71.05 1072.53,-68.42 1063.9,-70.02"/>
<ellipse fill="none" stroke="#ff99cc" cx="1059.12" cy="-68.86" rx="3.2" ry="3.2"/>
<text text-anchor="middle" x="552.5" y="-66.69" font-family="Monaco" font-size="9.00">LastModifiedBy</text>
</g>
</g>
</svg>
