<?xml version="1.0" encoding="UTF-8" standalone="no"?>
<!DOCTYPE svg PUBLIC "-//W3C//DTD SVG 1.1//EN"
 "http://www.w3.org/Graphics/SVG/1.1/DTD/svg11.dtd">
<!-- Generated by graphviz version 2.40.1 (20161225.0304)
 -->
<!-- Title: Salesforce+ ERD Pages: 1 -->
<svg width="800pt" height="200pt"
 viewBox="0.00 0.00 800.00 199.80" xmlns="http://www.w3.org/2000/svg" xmlns:xlink="http://www.w3.org/1999/xlink">
<g id="graph0" class="graph" transform="scale(1 1) rotate(0) translate(4 195.8)">
<title>Salesforce+ ERD</title>
<polygon fill="#efeffd" stroke="transparent" points="-4,4 -4,-195.8 796,-195.8 796,4 -4,4"/>
<text text-anchor="middle" x="743.5068" y="-6.7" font-family="Courier,monospace" font-size="9.00" fill="#000000">Salesforce ERD </text>
<!-- SetupAuditTrail -->
<g id="node1" class="node">
<title>SetupAuditTrail</title>
<g id="a_node1"><a xlink:href="#" xlink:title=" SetupAuditTrail ">
<polygon fill="#ffeeff" stroke="transparent" points="0,-18.8 0,-191.8 792,-191.8 792,-18.8 0,-18.8"/>
<polygon fill="#add8e6" stroke="transparent" points="1,-171.3 1,-190.3 791,-190.3 791,-171.3 1,-171.3"/>
<polygon fill="none" stroke="#99ccff" points="1,-171.3 1,-190.3 791,-190.3 791,-171.3 1,-171.3"/>
<text text-anchor="start" x="346.5082" y="-178.4" font-family="Courier,monospace" font-weight="bold" font-size="11.00" fill="#000000">SetupAuditTrail</text>
<polygon fill="#99ccff" stroke="transparent" points="1,-152.3 1,-171.3 706,-171.3 706,-152.3 1,-152.3"/>
<polygon fill="none" stroke="#99ccff" points="1,-152.3 1,-171.3 706,-171.3 706,-152.3 1,-152.3"/>
<text text-anchor="start" x="4" y="-159.4" font-family="Courier,monospace" font-size="11.00" fill="#000000"> &#160;&#160;&#160;&#160;&#160;&#160;&#160;&#160;&#160;&#160;&#160;&#160;&#160;&#160;&#160;&#160;&#160;&#160;&#160;&#160;&#160;&#160;&#160;&#160;&#160;&#160;&#160;&#160;&#160;&#160;&#160;&#160;&#160;&#160;&#160;&#160;&#160;&#160;&#160;&#160;&#160;&#160;</text>
<text text-anchor="start" x="287.7527" y="-159.4" font-family="Courier,monospace" font-weight="bold" font-size="11.00" fill="#000000">Id</text>
<text text-anchor="start" x="300.9505" y="-159.4" font-family="Courier,monospace" font-size="11.00" fill="#000000"> &#160;&#160;&#160;&#160;&#160;&#160;&#160;&#160;&#160;&#160;&#160;&#160;&#160;&#160;&#160;&#160;&#160;&#160;&#160;&#160;&#160;&#160;&#160;&#160;&#160;&#160;&#160;&#160;&#160;&#160;&#160;&#160;&#160;&#160;&#160;&#160;&#160;&#160;&#160;</text>
<polygon fill="none" stroke="#99ccff" points="706,-152.3 706,-171.3 791,-171.3 791,-152.3 706,-152.3"/>
<text text-anchor="start" x="728.7033" y="-158.4" font-family="Courier,monospace" font-size="11.00" fill="#000000">id(18)</text>
<polygon fill="none" stroke="#99ccff" points="1,-133.3 1,-152.3 706,-152.3 706,-133.3 1,-133.3"/>
<text text-anchor="start" x="4" y="-139.4" font-family="Courier,monospace" font-size="11.00" fill="#000000"> &#160;&#160;&#160;&#160;&#160;&#160;&#160;&#160;&#160;&#160;&#160;&#160;&#160;&#160;&#160;&#160;&#160;&#160;&#160;&#160;&#160;&#160;&#160;&#160;&#160;&#160;&#160;&#160;&#160;&#160;&#160;&#160;&#160;&#160;&#160;&#160;&#160;&#160;&#160;&#160;Action &#160;&#160;&#160;&#160;&#160;&#160;&#160;&#160;&#160;&#160;&#160;&#160;&#160;&#160;&#160;&#160;&#160;&#160;&#160;&#160;&#160;&#160;&#160;&#160;&#160;&#160;&#160;&#160;&#160;&#160;&#160;&#160;&#160;&#160;&#160;&#160;&#160;&#160;</text>
<polygon fill="none" stroke="#99ccff" points="706,-133.3 706,-152.3 791,-152.3 791,-133.3 706,-133.3"/>
<text text-anchor="start" x="712.2061" y="-139.4" font-family="Courier,monospace" font-size="11.00" fill="#000000">string(120)</text>
<polygon fill="none" stroke="#99ccff" points="1,-114.3 1,-133.3 706,-133.3 706,-114.3 1,-114.3"/>
<text text-anchor="start" x="4" y="-120.4" font-family="Courier,monospace" font-size="11.00" fill="#000000"> &#160;&#160;&#160;&#160;&#160;&#160;&#160;&#160;&#160;&#160;&#160;&#160;&#160;&#160;&#160;&#160;&#160;&#160;&#160;&#160;&#160;&#160;&#160;&#160;&#160;&#160;&#160;&#160;&#160;&#160;&#160;&#160;&#160;&#160;&#160;&#160;&#160;&#160;&#160;&#160;Section &#160;&#160;&#160;&#160;&#160;&#160;&#160;&#160;&#160;&#160;&#160;&#160;&#160;&#160;&#160;&#160;&#160;&#160;&#160;&#160;&#160;&#160;&#160;&#160;&#160;&#160;&#160;&#160;&#160;&#160;&#160;&#160;&#160;&#160;&#160;&#160;&#160;&#160;</text>
<polygon fill="none" stroke="#99ccff" points="706,-114.3 706,-133.3 791,-133.3 791,-114.3 706,-114.3"/>
<text text-anchor="start" x="715.5055" y="-120.4" font-family="Courier,monospace" font-size="11.00" fill="#000000">string(40)</text>
<polygon fill="none" stroke="#99ccff" points="1,-95.3 1,-114.3 706,-114.3 706,-95.3 1,-95.3"/>
<text text-anchor="start" x="4" y="-101.4" font-family="Courier,monospace" font-size="11.00" fill="#000000"> &#160;&#160;&#160;&#160;&#160;&#160;&#160;&#160;&#160;&#160;&#160;&#160;&#160;&#160;&#160;&#160;&#160;&#160;&#160;&#160;&#160;&#160;&#160;&#160;&#160;&#160;&#160;&#160;&#160;&#160;&#160;&#160;&#160;&#160;&#160;&#160;&#160;&#160;&#160;&#160;Display &#160;&#160;&#160;&#160;&#160;&#160;&#160;&#160;&#160;&#160;&#160;&#160;&#160;&#160;&#160;&#160;&#160;&#160;&#160;&#160;&#160;&#160;&#160;&#160;&#160;&#160;&#160;&#160;&#160;&#160;&#160;&#160;&#160;&#160;&#160;&#160;&#160;&#160;</text>
<polygon fill="none" stroke="#99ccff" points="706,-95.3 706,-114.3 791,-114.3 791,-95.3 706,-95.3"/>
<text text-anchor="start" x="708.9066" y="-101.4" font-family="Courier,monospace" font-size="11.00" fill="#000000">string(1000)</text>
<polygon fill="none" stroke="#99ccff" points="1,-76.3 1,-95.3 706,-95.3 706,-76.3 1,-76.3"/>
<text text-anchor="start" x="4" y="-82.4" font-family="Courier,monospace" font-size="11.00" fill="#000000"> &#160;&#160;&#160;&#160;&#160;&#160;&#160;&#160;&#160;&#160;&#160;&#160;&#160;&#160;&#160;&#160;&#160;&#160;&#160;&#160;&#160;&#160;&#160;&#160;&#160;&#160;&#160;&#160;&#160;&#160;&#160;&#160;&#160;&#160;&#160;&#160;&#160;&#160;&#160;&#160;DelegateUser &#160;&#160;&#160;&#160;&#160;&#160;&#160;&#160;&#160;&#160;&#160;&#160;&#160;&#160;&#160;&#160;&#160;&#160;&#160;&#160;&#160;&#160;&#160;&#160;&#160;&#160;&#160;&#160;&#160;&#160;&#160;&#160;&#160;&#160;&#160;&#160;&#160;&#160;</text>
<polygon fill="none" stroke="#99ccff" points="706,-76.3 706,-95.3 791,-95.3 791,-76.3 706,-76.3"/>
<text text-anchor="start" x="715.5055" y="-82.4" font-family="Courier,monospace" font-size="11.00" fill="#000000">string(80)</text>
<polygon fill="none" stroke="#99ccff" points="1,-57.3 1,-76.3 706,-76.3 706,-57.3 1,-57.3"/>
<text text-anchor="start" x="3.7583" y="-63.4" font-family="Courier,monospace" font-size="11.00" fill="#000000"> &#160;&#160;&#160;&#160;&#160;&#160;&#160;&#160;&#160;&#160;&#160;&#160;&#160;&#160;&#160;&#160;&#160;&#160;&#160;&#160;&#160;&#160;&#160;&#160;&#160;&#160;&#160;&#160;&#160;&#160;&#160;&#160;&#160;&#160;&#160;&#160;&#160;&#160;&#160;&#160;ResponsibleNamespacePrefix &#160;&#160;&#160;&#160;&#160;&#160;&#160;&#160;&#160;&#160;&#160;&#160;&#160;&#160;&#160;&#160;&#160;&#160;&#160;&#160;&#160;&#160;&#160;&#160;&#160;&#160;&#160;&#160;&#160;&#160;&#160;&#160;&#160;&#160;&#160;&#160;&#160;&#160;</text>
<polygon fill="none" stroke="#99ccff" points="706,-57.3 706,-76.3 791,-76.3 791,-57.3 706,-57.3"/>
<text text-anchor="start" x="715.5055" y="-63.4" font-family="Courier,monospace" font-size="11.00" fill="#000000">string(15)</text>
<polygon fill="none" stroke="#99ccff" points="1,-38.3 1,-57.3 706,-57.3 706,-38.3 1,-38.3"/>
<text text-anchor="start" x="4" y="-44.4" font-family="Courier,monospace" font-size="11.00" fill="#000000"> &#160;&#160;&#160;&#160;&#160;&#160;&#160;&#160;&#160;&#160;&#160;&#160;&#160;&#160;&#160;&#160;&#160;&#160;&#160;&#160;&#160;&#160;&#160;&#160;&#160;&#160;&#160;&#160;&#160;&#160;&#160;&#160;&#160;&#160;&#160;&#160;&#160;&#160;&#160;&#160;CreatedByContext &#160;&#160;&#160;&#160;&#160;&#160;&#160;&#160;&#160;&#160;&#160;&#160;&#160;&#160;&#160;&#160;&#160;&#160;&#160;&#160;&#160;&#160;&#160;&#160;&#160;&#160;&#160;&#160;&#160;&#160;&#160;&#160;&#160;&#160;&#160;&#160;&#160;&#160;</text>
<polygon fill="none" stroke="#99ccff" points="706,-38.3 706,-57.3 791,-57.3 791,-38.3 706,-38.3"/>
<text text-anchor="start" x="715.5055" y="-44.4" font-family="Courier,monospace" font-size="11.00" fill="#000000">string(80)</text>
<polygon fill="none" stroke="#99ccff" points="1,-19.3 1,-38.3 706,-38.3 706,-19.3 1,-19.3"/>
<text text-anchor="start" x="4" y="-25.4" font-family="Courier,monospace" font-size="11.00" fill="#000000"> &#160;&#160;&#160;&#160;&#160;&#160;&#160;&#160;&#160;&#160;&#160;&#160;&#160;&#160;&#160;&#160;&#160;&#160;&#160;&#160;&#160;&#160;&#160;&#160;&#160;&#160;&#160;&#160;&#160;&#160;&#160;&#160;&#160;&#160;&#160;&#160;&#160;&#160;&#160;&#160;CreatedByIssuer &#160;&#160;&#160;&#160;&#160;&#160;&#160;&#160;&#160;&#160;&#160;&#160;&#160;&#160;&#160;&#160;&#160;&#160;&#160;&#160;&#160;&#160;&#160;&#160;&#160;&#160;&#160;&#160;&#160;&#160;&#160;&#160;&#160;&#160;&#160;&#160;&#160;&#160;</text>
<polygon fill="none" stroke="#99ccff" points="706,-19.3 706,-38.3 791,-38.3 791,-19.3 706,-19.3"/>
<text text-anchor="start" x="715.5055" y="-25.4" font-family="Courier,monospace" font-size="11.00" fill="#000000">string(80)</text>
<polygon fill="none" stroke="#99ccff" points="0,-18.8 0,-191.8 792,-191.8 792,-18.8 0,-18.8"/>
</a>
</g>
</g>
</g>
</svg>
